<?xml version="1.0" encoding="UTF-8" standalone="no"?>
<!DOCTYPE svg PUBLIC "-//W3C//DTD SVG 1.1//EN" "http://www.w3.org/Graphics/SVG/1.1/DTD/svg11.dtd">
<svg width="100%" height="100%" viewBox="0 0 512 512" version="1.1" xmlns="http://www.w3.org/2000/svg" xmlns:xlink="http://www.w3.org/1999/xlink" xml:space="preserve" xmlns:serif="http://www.serif.com/" style="fill-rule:evenodd;clip-rule:evenodd;stroke-linejoin:round;stroke-miterlimit:2;">
    <g transform="matrix(1,0,0,1,53.3981,0)">
        <g transform="matrix(1.15915,0,0,1.15679,-86.9499,-50.3286)">
            <rect x="75.012" y="43.507" width="338.18" height="236.69" style="fill:rgb(252,127,127);"/>
        </g>
        <g transform="matrix(1.11541,0,0,1.11541,-116.956,2.15774)">
            <path d="M253.649,275.475L178.459,275.475C170.256,275.475 160.699,271.899 155.349,265.682L123.503,228.671C113.365,216.889 114.7,199.094 126.481,188.956C138.263,178.818 156.059,180.153 166.196,191.935L189.616,219.152L253.649,219.152L253.649,184.481L243.186,184.481C221.869,184.481 204.562,167.174 204.562,145.857L204.562,68.607C204.562,47.29 221.869,29.983 243.186,29.983L320.436,29.983C341.753,29.983 359.06,47.29 359.06,68.607L359.06,145.857C359.06,167.174 341.753,184.481 320.436,184.481L309.972,184.481C309.972,184.481 309.972,197.221 309.972,215.709L382.3,215.709C391.407,215.709 399.953,220.114 405.237,227.532L449.994,290.364C459.012,303.024 456.055,320.623 443.396,329.64C430.736,338.658 413.137,335.701 404.12,323.042L369.106,275.475L309.972,275.475C309.972,316.759 309.972,353.658 309.972,353.658L338.307,393.507L428.091,351.747C442.184,345.192 458.947,351.312 465.502,365.405C472.057,379.498 465.937,396.262 451.844,402.816L340.812,454.459C328.499,460.186 313.853,456.311 305.984,445.244L265.037,387.657L186.42,450.872C174.307,460.611 156.566,458.684 146.826,446.572C137.087,434.459 139.013,416.718 151.126,406.978L253.649,324.541L253.649,275.475Z" style="fill:rgb(252,127,127);"/>
        </g>
        <g transform="matrix(1.15915,0,0,1.15679,-86.9499,-50.3286)">
            <path d="M105.264,280.197L92.956,265.864C83.201,254.504 84.485,237.345 95.822,227.57C107.16,217.795 124.284,219.082 134.039,230.442L156.575,256.686L218.193,256.686L218.193,223.255L208.124,223.255C187.611,223.255 170.957,206.567 170.957,186.012L170.957,111.526C170.957,90.971 187.611,74.283 208.124,74.283L282.459,74.283C302.972,74.283 319.626,90.971 319.626,111.526L319.626,186.012C319.626,206.567 302.972,223.255 282.459,223.255L272.391,223.255L272.391,253.366L341.989,253.366C350.753,253.366 358.976,257.613 364.061,264.766L375.031,280.197L105.264,280.197Z" style="fill:white;"/>
        </g>
    </g>
</svg>
